<svg xmlns="http://www.w3.org/2000/svg" viewBox="0 0 512 512">
<!-- Background -->
<circle cx="256" cy="256" r="256" fill="#58B533"/>

<!-- Top black circle adjusted -->
<circle cx="256" cy="145" r="76" fill="#000000"/>

<!-- Lock lowered more -->
<g fill="#58B533">

    <!-- Open shackle -->
    <path d="
        M232 136
        V116
        C232 100 242 90 256 90
        C270 90 280 100 280 116
        V120
        H264
        V116
        C264 107 261 102 256 102
        C251 102 248 107 248 116
        V136
        Z"/>

    <!-- Body -->
    <path d="
        M220 132
        C220 128 223 125 227 125
        H285
        C289 125 292 128 292 132
        V174
        C292 178 289 181 285 181
        H227
        C223 181 220 178 220 174
        Z"/>

    <!-- Keyhole -->
    <circle cx="256" cy="150" r="5" fill="#000000"/>

    <path fill="#000000" d="
        M253 153
        H259
        V168
        C259 170 258 171 256 171
        C254 171 253 170 253 168
        Z"/>

</g>

<!-- Left brace -->
<path fill="#000000" d="
M182 128
H170
C138 128 116 150 116 182
V216
C116 236 108 248 92 256
C108 264 116 276 116 296
V330
C116 362 138 384 170 384
H182
V350
H170
C154 350 148 342 148 328
V292
C148 270 136 258 120 256
C136 254 148 242 148 220
V184
C148 170 154 162 170 162
H182
Z"/>


<!-- Right brace -->
<path fill="#000000" d="
M330 128
H342
C374 128 396 150 396 182
V216
C396 236 404 248 420 256
C404 264 396 276 396 296
V330
C396 362 374 384 342 384
H330
V350
H342
C358 350 364 342 364 328
V292
C364 270 376 258 392 256
C376 254 364 242 364 220
V184
C364 170 358 162 342 162
H330
Z"/>

<!-- Dots -->
<circle cx="192" cy="256" r="18" fill="#000000"/>
<circle cx="256" cy="256" r="18" fill="#000000"/>
<circle cx="320" cy="256" r="18" fill="#000000"/>
</svg>